<svg width="150" height="39" viewBox="0 0 150 39" fill="none" xmlns="http://www.w3.org/2000/svg">
<rect width="150" height="39" rx="19.5" fill="#DEE1E5"/>
<path d="M24.2926 26V24.0966L29.3423 19.1463C29.8253 18.6586 30.2277 18.2254 30.5497 17.8466C30.8717 17.4678 31.1132 17.1009 31.2741 16.7457C31.4351 16.3906 31.5156 16.0118 31.5156 15.6094C31.5156 15.1501 31.4115 14.7571 31.2031 14.4304C30.9948 14.099 30.7083 13.8433 30.3438 13.6634C29.9792 13.4834 29.5649 13.3935 29.1009 13.3935C28.6226 13.3935 28.2036 13.4929 27.8438 13.6918C27.4839 13.8859 27.2045 14.1629 27.0057 14.5227C26.8116 14.8826 26.7145 15.3111 26.7145 15.8082H24.2074C24.2074 14.8849 24.4181 14.0824 24.8395 13.4006C25.2609 12.7187 25.8409 12.1908 26.5795 11.8168C27.3229 11.4427 28.1752 11.2557 29.1364 11.2557C30.1117 11.2557 30.9688 11.438 31.7074 11.8026C32.446 12.1671 33.0189 12.6667 33.4261 13.3011C33.8381 13.9356 34.044 14.66 34.044 15.4744C34.044 16.0189 33.9399 16.554 33.7315 17.0795C33.5232 17.6051 33.1563 18.1875 32.6307 18.8267C32.1098 19.4659 31.3783 20.2401 30.4361 21.1491L27.929 23.6989V23.7983H34.2642V26H24.2926ZM41.6909 26.277C40.5214 26.277 39.5176 25.9811 38.6795 25.3892C37.8462 24.7926 37.2046 23.9332 36.7548 22.8111C36.3098 21.6842 36.0872 20.3277 36.0872 18.7415C36.092 17.1553 36.3169 15.8059 36.7619 14.6932C37.2117 13.5758 37.8533 12.7235 38.6866 12.1364C39.5247 11.5492 40.5261 11.2557 41.6909 11.2557C42.8557 11.2557 43.8571 11.5492 44.6952 12.1364C45.5332 12.7235 46.1748 13.5758 46.6199 14.6932C47.0697 15.8106 47.2946 17.16 47.2946 18.7415C47.2946 20.3324 47.0697 21.6913 46.6199 22.8182C46.1748 23.9403 45.5332 24.7973 44.6952 25.3892C43.8618 25.9811 42.8604 26.277 41.6909 26.277ZM41.6909 24.054C42.6 24.054 43.3173 23.6065 43.8429 22.7116C44.3732 21.812 44.6384 20.4886 44.6384 18.7415C44.6384 17.5862 44.5176 16.6155 44.2761 15.8295C44.0347 15.0436 43.6938 14.4517 43.2534 14.054C42.8131 13.6515 42.2922 13.4503 41.6909 13.4503C40.7866 13.4503 40.0716 13.9001 39.546 14.7997C39.0205 15.6946 38.7553 17.0085 38.7506 18.7415C38.7458 19.9015 38.8618 20.8769 39.0986 21.6676C39.3401 22.4583 39.681 23.0549 40.1213 23.4574C40.5616 23.8551 41.0848 24.054 41.6909 24.054ZM54.6308 26.277C53.4612 26.277 52.4575 25.9811 51.6194 25.3892C50.7861 24.7926 50.1445 23.9332 49.6947 22.8111C49.2496 21.6842 49.0271 20.3277 49.0271 18.7415C49.0318 17.1553 49.2567 15.8059 49.7018 14.6932C50.1516 13.5758 50.7932 12.7235 51.6265 12.1364C52.4646 11.5492 53.466 11.2557 54.6308 11.2557C55.7955 11.2557 56.7969 11.5492 57.635 12.1364C58.4731 12.7235 59.1147 13.5758 59.5597 14.6932C60.0095 15.8106 60.2344 17.16 60.2344 18.7415C60.2344 20.3324 60.0095 21.6913 59.5597 22.8182C59.1147 23.9403 58.4731 24.7973 57.635 25.3892C56.8017 25.9811 55.8003 26.277 54.6308 26.277ZM54.6308 24.054C55.5398 24.054 56.2572 23.6065 56.7827 22.7116C57.313 21.812 57.5782 20.4886 57.5782 18.7415C57.5782 17.5862 57.4575 16.6155 57.216 15.8295C56.9745 15.0436 56.6336 14.4517 56.1933 14.054C55.7529 13.6515 55.2321 13.4503 54.6308 13.4503C53.7264 13.4503 53.0114 13.9001 52.4859 14.7997C51.9603 15.6946 51.6951 17.0085 51.6904 18.7415C51.6857 19.9015 51.8017 20.8769 52.0384 21.6676C52.2799 22.4583 52.6208 23.0549 53.0612 23.4574C53.5015 23.8551 54.0247 24.054 54.6308 24.054ZM69.0349 26L65.9526 15.0909H68.5733L70.4909 22.7614H70.5903L72.5506 15.0909H75.1429L77.1031 22.7188H77.2097L79.0989 15.0909H81.7267L78.6372 26H75.9597L73.9142 18.6278H73.7651L71.7196 26H69.0349ZM87.6388 26.2131C86.5451 26.2131 85.6005 25.9858 84.805 25.5312C84.0143 25.072 83.4059 24.4233 82.9798 23.5852C82.5536 22.7424 82.3406 21.7505 82.3406 20.6094C82.3406 19.4872 82.5536 18.5024 82.9798 17.6548C83.4106 16.8026 84.012 16.1397 84.7837 15.6662C85.5555 15.188 86.4622 14.9489 87.5039 14.9489C88.1763 14.9489 88.8107 15.0578 89.4073 15.2756C90.0086 15.4886 90.5389 15.8201 90.9982 16.2699C91.4622 16.7197 91.8268 17.2926 92.092 17.9886C92.3571 18.6799 92.4897 19.5038 92.4897 20.4602V21.2486H83.5479V19.5156H90.0252C90.0205 19.0232 89.9139 18.5852 89.7056 18.2017C89.4973 17.8134 89.2061 17.508 88.832 17.2855C88.4627 17.063 88.0318 16.9517 87.5394 16.9517C87.0138 16.9517 86.5522 17.0795 86.1545 17.3352C85.7567 17.5862 85.4466 17.9176 85.2241 18.3295C85.0063 18.7367 84.895 19.1842 84.8903 19.6719V21.1847C84.8903 21.8191 85.0063 22.3636 85.2383 22.8182C85.4703 23.268 85.7946 23.6136 86.2113 23.8551C86.628 24.0919 87.1156 24.2102 87.6744 24.2102C88.0484 24.2102 88.387 24.1581 88.69 24.054C88.993 23.9451 89.2558 23.7865 89.4783 23.5781C89.7009 23.3698 89.869 23.1117 89.9826 22.804L92.3832 23.0739C92.2317 23.7083 91.9428 24.2623 91.5167 24.7358C91.0953 25.2045 90.5555 25.5691 89.8974 25.8295C89.2392 26.0852 88.4864 26.2131 87.6388 26.2131ZM94.3784 26V11.4545H96.9494V16.8949H97.056C97.1885 16.6297 97.3756 16.348 97.617 16.0497C97.8585 15.7467 98.1852 15.4886 98.5972 15.2756C99.0091 15.0578 99.5347 14.9489 100.174 14.9489C101.017 14.9489 101.777 15.1643 102.454 15.5952C103.136 16.0213 103.675 16.6534 104.073 17.4915C104.475 18.3248 104.677 19.3475 104.677 20.5597C104.677 21.7576 104.48 22.7756 104.087 23.6136C103.694 24.4517 103.159 25.0909 102.482 25.5312C101.805 25.9716 101.038 26.1918 100.181 26.1918C99.556 26.1918 99.0375 26.0876 98.6256 25.8793C98.2136 25.6709 97.8822 25.42 97.6312 25.1264C97.385 24.8281 97.1933 24.5464 97.056 24.2812H96.9068V26H94.3784ZM96.8997 20.5455C96.8997 21.2509 96.9991 21.8688 97.198 22.3991C97.4016 22.9295 97.6928 23.3437 98.0716 23.642C98.4551 23.9356 98.9191 24.0824 99.4636 24.0824C100.032 24.0824 100.508 23.9309 100.891 23.6278C101.275 23.3201 101.564 22.901 101.758 22.3707C101.957 21.8357 102.056 21.2273 102.056 20.5455C102.056 19.8684 101.959 19.267 101.765 18.7415C101.571 18.2159 101.282 17.804 100.898 17.5057C100.515 17.2074 100.037 17.0582 99.4636 17.0582C98.9144 17.0582 98.448 17.2027 98.0645 17.4915C97.681 17.7803 97.3898 18.1851 97.1909 18.706C96.9968 19.2268 96.8997 19.84 96.8997 20.5455Z" fill="#076397"/>
<g filter="url(#filter0_d_242_171)">
<circle cx="123.5" cy="19" r="3.5" fill="#076397"/>
</g>
<defs>
<filter id="filter0_d_242_171" x="114" y="9.5" width="19" height="19" filterUnits="userSpaceOnUse" color-interpolation-filters="sRGB">
<feFlood flood-opacity="0" result="BackgroundImageFix"/>
<feColorMatrix in="SourceAlpha" type="matrix" values="0 0 0 0 0 0 0 0 0 0 0 0 0 0 0 0 0 0 127 0" result="hardAlpha"/>
<feMorphology radius="2" operator="dilate" in="SourceAlpha" result="effect1_dropShadow_242_171"/>
<feOffset/>
<feGaussianBlur stdDeviation="2"/>
<feComposite in2="hardAlpha" operator="out"/>
<feColorMatrix type="matrix" values="0 0 0 0 0.027451 0 0 0 0 0.388235 0 0 0 0 0.592157 0 0 0 0.51 0"/>
<feBlend mode="normal" in2="BackgroundImageFix" result="effect1_dropShadow_242_171"/>
<feBlend mode="normal" in="SourceGraphic" in2="effect1_dropShadow_242_171" result="shape"/>
</filter>
</defs>
</svg>
