<svg width="30" height="27" viewBox="0 0 30 27" fill="none" xmlns="http://www.w3.org/2000/svg">
<path d="M29.1397 15.0241C29.1075 15.0914 29.0754 15.125 29.0433 15.1587C29.0433 15.1587 29.0111 15.1924 29.0111 15.226C28.7862 15.5963 28.4649 15.9329 28.0471 16.1685C27.9828 16.2021 27.9507 16.2358 27.8864 16.2695C27.1795 16.7407 26.5368 17.3466 26.0226 18.0197C25.6692 18.491 25.3478 18.9959 25.0265 19.5344C24.7373 20.073 24.4802 20.6115 24.2552 21.1837C23.9018 22.0925 23.7411 23.0686 23.709 24.0448C23.709 24.516 23.5804 25.0209 23.3234 25.4584C23.2269 25.6267 23.1305 25.795 23.002 25.9297C22.9699 25.997 22.9056 26.0307 22.8735 26.0643C22.7449 26.1989 22.5843 26.3336 22.4236 26.4682C22.3593 26.5019 22.2951 26.5355 22.2629 26.5692C22.1986 26.6029 22.1665 26.6365 22.1022 26.6702C21.9737 26.7375 21.8773 26.7712 21.7488 26.8385C21.5881 26.9058 21.3953 26.9394 21.2025 26.9731C20.3349 27.0741 19.4351 26.7712 18.7924 26.098C18.7603 26.0643 18.696 25.997 18.6639 25.9633C18.6317 25.896 18.5675 25.8624 18.5353 25.795C18.5032 25.7277 18.4711 25.6941 18.4068 25.6267C18.3747 25.5594 18.3425 25.5258 18.3104 25.4584C18.214 25.2901 18.1497 25.1218 18.0854 24.9199C18.0212 24.7179 17.989 24.5496 17.9569 24.3477C17.9569 24.2804 17.9569 24.1794 17.9248 24.0784C17.9248 24.0448 17.9248 24.0448 17.9248 24.0111C17.9248 23.035 17.732 22.0589 17.3785 21.1501C17.1535 20.5778 16.8965 20.0393 16.6073 19.5008C16.3181 18.9622 15.9967 18.4573 15.6111 17.9861C15.0648 17.2456 14.39 16.6397 13.6509 16.1685C13.2331 15.9329 12.8797 15.5963 12.6226 15.1924C12.5905 15.125 12.5583 15.0577 12.4941 14.9904C12.4619 14.9231 12.4298 14.8221 12.3655 14.7548C12.237 14.3172 12.1727 13.846 12.1727 13.4084C12.1406 12.4996 11.9799 11.5572 11.6264 10.7157C11.4015 10.1435 11.1444 9.60492 10.8552 9.06637C10.566 8.52783 10.2447 8.02294 9.85904 7.55171C9.66623 7.28243 9.47343 7.04682 9.24848 6.84486C9.02354 7.08048 8.83074 7.31609 8.63793 7.55171C8.31659 7.98928 7.99524 8.52783 7.6739 9.03272C7.38469 9.57126 7.12761 10.1098 6.90267 10.682C6.5492 11.5908 6.38852 12.5669 6.35639 13.5431V13.5767C6.38852 14.5192 6.5492 15.428 6.87054 16.3031C7.09548 16.8753 7.35256 17.4139 7.64176 17.9524C7.93097 18.491 8.25232 18.9959 8.63793 19.4671C9.21635 20.2413 9.92331 20.8808 10.7267 21.3857C11.1123 21.6213 11.4658 21.9915 11.7228 22.4291C12.5262 23.8765 12.0763 25.7614 10.6945 26.6029C9.31275 27.4443 7.51323 26.9394 6.742 25.4584C6.48493 25.0209 6.38852 24.516 6.35639 24.0448C6.32425 23.0686 6.16358 22.0925 5.8101 21.1837C5.58516 20.6115 5.32809 20.073 5.03888 19.5344C4.74967 18.9959 4.42832 18.491 4.04271 18.0197C3.46429 17.2456 2.75734 16.6061 1.92184 16.1012C1.72904 15.9665 1.53623 15.8319 1.34342 15.6299C0.765004 14.9904 0.475794 14.1489 0.540063 13.3074C0.540063 13.2065 0.572197 13.1055 0.572197 13.0045V12.9709C0.572197 12.9035 0.604332 12.8362 0.604332 12.7689C0.604332 12.7016 0.636466 12.6343 0.6686 12.5669C0.700735 12.4996 0.700735 12.4323 0.732869 12.3986C0.765004 12.365 0.765004 12.264 0.797138 12.2303C0.893541 12.163 0.925676 12.1294 0.925676 12.0957C0.95781 12.0621 0.95781 12.0284 0.989944 11.9611C1.02208 11.8938 1.08635 11.8264 1.11848 11.7255C1.15062 11.6918 1.15062 11.6581 1.18275 11.6245C1.24702 11.5908 1.27915 11.5572 1.34342 11.4898C1.37556 11.4562 1.40769 11.4225 1.43983 11.3552C1.56836 11.2206 1.6969 11.0859 1.85757 10.985C1.92184 10.9513 1.95398 10.9176 2.01824 10.884L2.05038 10.8503C2.82161 10.3454 3.52856 9.7059 4.10698 8.9654C4.46046 8.49417 4.81394 7.98928 5.10315 7.45073C5.39236 6.91218 5.64943 6.37363 5.87437 5.80143C6.22785 4.89263 6.38852 3.91651 6.42066 2.94039C6.42066 2.46916 6.5492 1.96427 6.80627 1.5267C6.93481 1.29108 7.09548 1.05547 7.28829 0.887171C7.28829 0.887171 7.28829 0.887171 7.32042 0.853512C7.38469 0.786193 7.44896 0.718874 7.51323 0.685215C7.5775 0.617897 7.6739 0.550578 7.73817 0.516919C7.80244 0.48326 7.86671 0.4496 7.89884 0.415941C7.96311 0.382282 8.02738 0.348623 8.09165 0.314963C8.18805 0.247645 8.31659 0.213985 8.41299 0.180326C8.41299 0.180326 8.44512 0.180326 8.47726 0.180326C8.57366 0.146667 8.67007 0.113008 8.7986 0.113008C8.83074 0.113008 8.86287 0.113008 8.89501 0.0793484C8.95927 0.0793484 8.99141 0.0793483 9.02354 0.045689C9.60196 -0.0216295 10.2447 0.113008 10.7909 0.415941C10.8231 0.415941 10.8552 0.4496 10.8552 0.48326C10.9195 0.550578 11.0159 0.584238 11.0801 0.651556C11.1765 0.718875 11.273 0.819852 11.3694 0.92083C11.4015 0.95449 11.4658 1.02181 11.4979 1.05547C11.6264 1.22376 11.755 1.39206 11.8514 1.56036C12.1084 1.99793 12.2048 2.50282 12.237 2.97405C12.237 3.95017 12.4298 4.92628 12.7833 5.83508C13.0082 6.40729 13.2653 6.94584 13.5545 7.48439C13.8437 8.02294 14.165 8.52783 14.5507 8.99906C15.0969 9.73956 15.7718 10.3454 16.5109 10.8167C16.8322 10.985 17.1214 11.2206 17.3464 11.5235C17.4106 11.5908 17.4749 11.6918 17.5392 11.7928C17.5713 11.8601 17.6034 11.8938 17.6356 11.9611C17.6677 12.0621 17.732 12.1294 17.7641 12.2303C17.9569 12.6679 18.0533 13.1391 18.0212 13.6104C18.0533 14.5192 18.214 15.4616 18.5353 16.3031C18.7603 16.8753 19.0173 17.4139 19.3066 17.9524C19.5958 18.491 19.9171 18.9959 20.3027 19.4671C20.4955 19.7364 20.6883 19.972 20.9133 20.1739C21.1382 19.972 21.331 19.7364 21.5238 19.4671C21.8773 18.9959 22.2308 18.491 22.52 17.9524C22.8092 17.4139 23.0663 16.8753 23.2912 16.3031C23.6126 15.4616 23.7732 14.5528 23.8054 13.644C23.8054 13.6104 23.8054 13.6104 23.8054 13.5767C23.7732 12.6006 23.6126 11.6245 23.2591 10.7157C23.0341 10.1435 22.7771 9.60492 22.4879 9.06637C22.1986 8.52783 21.8773 8.02294 21.4917 7.55171C20.9133 6.77754 20.1742 6.13802 19.3708 5.63313C18.9852 5.36385 18.6317 5.02726 18.3747 4.58969C17.5713 3.14234 18.0212 1.25742 19.403 0.415941C20.7847 -0.425541 22.5843 0.0793483 23.3555 1.56036C23.6126 2.03159 23.709 2.50282 23.7411 2.97405C23.7732 3.95017 23.9339 4.92628 24.2874 5.83508C24.5123 6.40729 24.7694 6.94584 25.0586 7.48439C25.3478 8.02294 25.7013 8.52783 26.0548 8.99906C26.5689 9.67224 27.1795 10.2445 27.8543 10.7157C27.9507 10.7493 28.0471 10.8167 28.1435 10.8503C29.461 11.6918 29.943 13.5767 29.1397 15.0241Z" fill="#006397"/>
</svg>
